<?xml version="1.0" encoding="UTF-8"?>
<svg id="Layer_1" xmlns="http://www.w3.org/2000/svg" version="1.1" viewBox="0 0 181.49 30.88">
  <!-- Generator: Adobe Illustrator 30.5.1, SVG Export Plug-In . SVG Version: 2.1.4 Build 3)  -->
  <defs>
    <style>
      .st0 {
        fill: #fff;
      }
    </style>
  </defs>
  <path class="st0" d="M0,30.87V.08h7.74v30.79H0ZM6.91,30.87v-7.24h5c1.3,0,2.47-.19,3.52-.56,1.04-.37,1.92-.92,2.64-1.62.72-.71,1.28-1.57,1.67-2.58s.58-2.16.58-3.43-.19-2.5-.58-3.52-.94-1.86-1.67-2.54-1.6-1.19-2.64-1.54-2.21-.52-3.52-.52h-5V.08h4.66c2.74,0,5.15.39,7.22,1.16s3.8,1.85,5.18,3.23c1.38,1.38,2.43,2.96,3.12,4.76s1.04,3.72,1.04,5.74v.92c0,1.86-.35,3.68-1.04,5.47-.69,1.79-1.74,3.4-3.12,4.83-1.39,1.43-3.11,2.57-5.18,3.41-2.07.85-4.47,1.27-7.22,1.27h-4.66Z"/>
  <path class="st0" d="M42.23,30.88c-1.94,0-3.66-.34-5.16-1s-2.76-1.57-3.79-2.7-1.81-2.41-2.35-3.83-.81-2.87-.81-4.37v-.83c0-1.56.27-3.05.81-4.47.54-1.43,1.32-2.7,2.33-3.81s2.25-1.99,3.72-2.64,3.14-.97,4.99-.97c2.47,0,4.56.56,6.28,1.67s3.04,2.58,3.95,4.39c.92,1.81,1.37,3.8,1.37,5.93v2.41h-20.31v-4.08h15.94l-2.62,1.83c0-1.3-.17-2.41-.52-3.31s-.86-1.59-1.54-2.06-1.53-.71-2.56-.71-1.87.23-2.6.68-1.3,1.15-1.68,2.08-.58,2.1-.58,3.52c0,1.28.18,2.38.54,3.31s.92,1.65,1.67,2.14,1.72.75,2.91.75c1.05,0,1.92-.18,2.6-.54s1.16-.85,1.43-1.46h6.91c-.34,1.56-.99,2.94-1.98,4.16-.99,1.22-2.23,2.18-3.74,2.87-1.51.69-3.25,1.04-5.22,1.04h0Z"/>
  <path class="st0" d="M54.92,13.9v-5.49h15.1v5.49h-15.1ZM57.5,30.87V7.99c0-2.69.77-4.69,2.33-6.01s3.85-1.98,6.91-1.98h2.96v5.58h-3.12c-.66,0-1.18.18-1.54.54s-.54.87-.54,1.54v23.22h-7Z"/>
  <path class="st0" d="M78.88,30.88c-1.61,0-3.04-.29-4.29-.87s-2.23-1.42-2.93-2.52c-.71-1.1-1.06-2.41-1.06-3.93,0-1.72.46-3.11,1.37-4.18.92-1.07,2.18-1.85,3.79-2.35s3.45-.75,5.53-.75h4.45v3.91h-4.45c-1.03,0-1.82.26-2.37.77-.56.52-.83,1.2-.83,2.06s.28,1.5.83,2.02c.56.52,1.34.77,2.37.77.66,0,1.25-.12,1.77-.36.51-.23.94-.65,1.27-1.23s.53-1.39.58-2.41l1.75,1.67c-.14,1.58-.52,2.92-1.14,4.01-.63,1.1-1.48,1.94-2.58,2.52s-2.45.87-4.06.87h0ZM86.16,30.3v-6.74h-1.25v-7.2c0-1.05-.25-1.84-.73-2.35s-1.28-.77-2.39-.77c-.53,0-1.3.01-2.33.04s-2.11.07-3.25.12c-1.14.06-2.18.11-3.12.17v-6.33c.66-.06,1.46-.11,2.37-.17.92-.06,1.87-.1,2.85-.12s1.89-.04,2.72-.04c2.36,0,4.36.35,6.01,1.04s2.91,1.74,3.79,3.12c.87,1.39,1.31,3.15,1.31,5.29v13.94h-5.99.01Z"/>
  <path class="st0" d="M107.13,30.87c-1.99,0-3.73-.33-5.2-.97-1.47-.65-2.7-1.53-3.68-2.64-.99-1.11-1.72-2.37-2.21-3.79-.48-1.41-.73-2.89-.73-4.41v-.83c0-1.61.26-3.14.77-4.58.51-1.44,1.27-2.72,2.27-3.83s2.23-1.98,3.7-2.62,3.16-.96,5.07-.96c2.11,0,3.97.41,5.58,1.25,1.61.83,2.89,1.98,3.85,3.43.96,1.46,1.49,3.13,1.6,5.02h-7.4c-.08-.92-.43-1.69-1.02-2.33-.59-.64-1.47-.96-2.6-.96-.97,0-1.77.25-2.39.75s-1.09,1.19-1.39,2.08-.46,1.94-.46,3.16c0,1.14.13,2.15.39,3.04s.71,1.57,1.33,2.06c.63.48,1.47.73,2.52.73.77,0,1.43-.14,1.96-.42.53-.28.94-.67,1.25-1.19.3-.51.5-1.12.58-1.81h7.4c-.11,1.94-.66,3.65-1.65,5.12-.99,1.47-2.3,2.62-3.93,3.45-1.64.83-3.51,1.25-5.62,1.25h.02-.01Z"/>
  <path class="st0" d="M118.99,13.07v-5.49h16.64v5.49h-16.64ZM132.51,30.88c-2.5,0-4.49-.3-5.97-.92-1.48-.61-2.56-1.62-3.23-3.04-.66-1.41-1-3.33-1-5.74l.04-19.6h6.99l-.04,19.8c0,1.03.27,1.81.81,2.35s1.32.81,2.35.81h3.16v6.33h-3.12,0Z"/>
  <path class="st0" d="M150.49,30.88c-2.03,0-3.83-.3-5.41-.92-1.58-.61-2.92-1.46-4.01-2.54-1.1-1.08-1.93-2.33-2.5-3.74s-.85-2.92-.85-4.54v-1c0-1.67.3-3.21.9-4.66.59-1.44,1.45-2.7,2.56-3.79,1.11-1.08,2.45-1.93,4.03-2.54s3.34-.92,5.29-.92,3.74.3,5.31.92,2.9,1.46,4.01,2.54,1.96,2.34,2.56,3.79c.59,1.44.9,2.99.9,4.66v1c0,1.61-.28,3.12-.85,4.54-.57,1.41-1.4,2.67-2.5,3.74-1.1,1.08-2.43,1.93-4.01,2.54s-3.38.92-5.41.92h-.02ZM150.49,24.56c1.17,0,2.13-.25,2.89-.75s1.34-1.2,1.72-2.1c.39-.9.58-1.92.58-3.06s-.2-2.24-.6-3.14c-.4-.9-.99-1.61-1.77-2.14-.77-.53-1.72-.79-2.83-.79s-2.05.26-2.83.79c-.77.53-1.37,1.24-1.77,2.14-.4.9-.6,1.95-.6,3.14s.19,2.16.58,3.06.97,1.6,1.75,2.1c.77.5,1.74.75,2.87.75h.01Z"/>
  <path class="st0" d="M166.84,30.87V7.91h5.99v9.99h-.08c0-3.22.67-5.74,2.02-7.57s3.28-2.74,5.8-2.74h.92v6.49h-1.75c-1.69,0-3,.46-3.93,1.37-.93.92-1.39,2.23-1.39,3.95v11.48h-7.58Z"/>
</svg>