<?xml version="1.0" encoding="UTF-8"?>
<svg id="Layer_1" xmlns="http://www.w3.org/2000/svg" version="1.1" viewBox="0 0 154.98 40">
  <!-- Generator: Adobe Illustrator 30.5.1, SVG Export Plug-In . SVG Version: 2.1.4 Build 3)  -->
  <defs>
    <style>
      .st0 {
        fill: #070118;
      }

      .st1 {
        fill: #d21a4d;
      }

      .st2 {
        fill: #5a5beb;
      }

      .st3 {
        fill: #e0a225;
      }

      .st4 {
        fill: #26a66b;
      }
    </style>
  </defs>
  <g>
    <g>
      <path class="st4" d="M34.03,9.05L18.97.35c-.8-.46-1.8-.46-2.6,0L1.3,9.05c-.8.46-1.3,1.33-1.3,2.26v17.4c0,.93.5,1.79,1.3,2.26l15.06,8.7c.8.46,1.8.46,2.6,0l15.06-8.7c.8-.46,1.3-1.33,1.3-2.26V11.3c0-.93-.5-1.79-1.3-2.26h0ZM16.36,31.23l-7.78-4.49c-.8-.46-1.3-1.33-1.3-2.26v-8.98c0-.93.5-1.79,1.3-2.26l7.78-4.49c.8-.46,1.8-.46,2.6,0l7.78,4.49c.8.46,1.3,1.33,1.3,2.26v8.98c0,.93-.5,1.79-1.3,2.26l-7.78,4.49c-.8.46-1.8.46-2.6,0Z"/>
      <path class="st2" d="M7.59,14.28c.22-.42.57-.78,1-1.03l7.78-4.49c.4-.23.85-.35,1.3-.35V0c-.45,0-.9.12-1.3.35L1.3,9.05c-.41.24-.73.57-.96.97l7.25,4.27h0Z"/>
      <path class="st1" d="M27.74,14.28c-.22-.42-.57-.78-1-1.03l-7.78-4.49c-.4-.23-.85-.35-1.3-.35V0c.45,0,.9.12,1.3.35l15.06,8.7c.41.24.73.57.96.97l-7.25,4.27h0Z"/>
      <path class="st2" d="M27.74,25.71c-.22.42-.57.78-1,1.03l-7.78,4.49c-.4.23-.85.35-1.3.35v8.41c.45,0,.9-.12,1.3-.35l15.06-8.7c.41-.24.73-.57.96-.97l-7.25-4.27h0Z"/>
      <path class="st3" d="M7.59,25.71c.22.42.57.78,1,1.03l7.78,4.49c.4.23.85.35,1.3.35v8.41c-.45,0-.9-.12-1.3-.35L1.3,30.95c-.41-.24-.73-.57-.96-.97l7.25-4.27h0Z"/>
    </g>
    <path class="st2" d="M18.05,26.86c-1.2,0-2.19-.17-2.98-.5s-1.38-.81-1.77-1.43c-.35-.55-.54-1.18-.58-1.91,0-.15.12-.29.28-.29h2.39c.13,0,.25.1.27.23.03.22.11.43.25.62.18.25.44.44.8.58.36.13.81.2,1.35.2.71,0,1.26-.11,1.67-.34.4-.23.61-.56.61-1,0-.36-.17-.66-.5-.89s-.89-.38-1.67-.45l-.81-.07c-1.29-.12-2.32-.51-3.09-1.17-.77-.66-1.15-1.6-1.15-2.81,0-.84.18-1.53.55-2.08s.89-.97,1.59-1.24c.69-.28,1.53-.42,2.51-.42,1.06,0,1.95.16,2.66.49s1.25.79,1.62,1.39c.32.53.5,1.17.54,1.9,0,.15-.12.29-.28.29h-2.39c-.13,0-.25-.1-.27-.24-.03-.21-.1-.4-.21-.57-.15-.23-.37-.41-.64-.55s-.62-.2-1.02-.2c-.36,0-.67.05-.93.15s-.45.24-.58.42-.2.4-.2.66c0,.32.12.61.36.87.24.27.65.43,1.23.49l.81.07c1.46.12,2.63.5,3.5,1.15.88.65,1.31,1.59,1.31,2.81,0,.84-.2,1.54-.6,2.11-.4.57-.99,1-1.77,1.3-.77.29-1.73.44-2.84.44h0ZM16.57,14.45v-1.86c0-.15.13-.28.28-.28h2.02c.15,0,.28.13.28.28v1.86c0,.15-.13.28-.28.28h-2.02c-.15,0-.28-.13-.28-.28ZM16.64,28.17v-1.44c0-.15.13-.28.28-.28h2.02c.15,0,.28.13.28.28v1.44c0,.15-.13.28-.28.28h-2.02c-.15,0-.28-.13-.28-.28Z"/>
  </g>
  <g>
    <path class="st0" d="M48.33,35.44V4.56h7.81v30.88h-7.81ZM54.16,26.04v-6h7.34c.92,0,1.72-.18,2.39-.55.67-.36,1.19-.88,1.57-1.55s.56-1.46.56-2.35-.19-1.72-.56-2.39-.9-1.19-1.57-1.55c-.67-.36-1.47-.55-2.39-.55h-7.34v-6.55h6.88c2.66,0,4.95.4,6.88,1.19s3.41,1.97,4.45,3.53c1.03,1.55,1.55,3.48,1.55,5.77v.67c0,2.29-.53,4.2-1.57,5.73-1.05,1.52-2.53,2.67-4.45,3.44-1.92.77-4.2,1.16-6.86,1.16h-6.88,0ZM66.79,35.44l-8.6-13.01h8.47l9.1,13.01h-8.98,0Z"/>
    <path class="st0" d="M78.79,35.44V4.81h7.55v30.63h-7.55ZM85.5,11.19v-6.38h12.67v6.38h-12.67ZM85.5,23.06v-6.38h12.04v6.38h-12.04ZM85.5,35.44v-6.38h12.92v6.38h-12.92Z"/>
    <path class="st0" d="M100.27,35.44l9.82-30.63h12.5l10.15,30.63h-8.05l-7.89-25.17,2.22.84h-5.54l2.27-.84-7.68,25.17h-7.81,0ZM108.29,28.35l2.35-6.38h11.62l2.35,6.38h-16.32Z"/>
    <path class="st0" d="M135.6,35.44V4.81h7.81v30.63h-7.81ZM142.56,35.44v-6.8h12.42v6.8h-12.42,0Z"/>
  </g>
</svg>